<svg width="42" height="40" viewBox="0 0 42 40" fill="none" xmlns="http://www.w3.org/2000/svg">
<path d="M21 26C22.5913 26 24.1174 25.3679 25.2426 24.2426C26.3679 23.1174 27 21.5913 27 20C27 18.4087 26.3679 16.8826 25.2426 15.7574C24.1174 14.6321 22.5913 14 21 14C19.4087 14 17.8826 14.6321 16.7574 15.7574C15.6321 16.8826 15 18.4087 15 20C15 21.5913 15.6321 23.1174 16.7574 24.2426C17.8826 25.3679 19.4087 26 21 26V26Z" stroke="#E2E2E2" stroke-width="1.5" stroke-miterlimit="10" stroke-linecap="round" stroke-linejoin="round"/>
<path d="M1 21.76V18.24C1 16.16 2.7 14.44 4.8 14.44C8.42 14.44 9.9 11.88 8.08 8.74C7.04 6.94 7.66 4.59999 9.48 3.55999L12.94 1.57999C14.52 0.639995 16.56 1.2 17.5 2.78L17.72 3.15999C19.52 6.29999 22.48 6.29999 24.3 3.15999L24.52 2.78C25.46 1.2 27.5 0.639995 29.08 1.57999L32.54 3.55999C34.36 4.59999 34.98 6.94 33.94 8.74C32.12 11.88 33.6 14.44 37.22 14.44C39.3 14.44 41.02 16.14 41.02 18.24V21.76C41.02 23.84 39.32 25.56 37.22 25.56C33.6 25.56 32.12 28.12 33.94 31.26C34.98 33.08 34.36 35.4 32.54 36.44L29.08 38.42C27.5 39.36 25.46 38.8 24.52 37.22L24.3 36.84C22.5 33.7 19.54 33.7 17.72 36.84L17.5 37.22C16.56 38.8 14.52 39.36 12.94 38.42L9.48 36.44C8.6082 35.938 7.97116 35.1107 7.70869 34.1395C7.44622 33.1684 7.57976 32.1328 8.08 31.26C9.9 28.12 8.42 25.56 4.8 25.56C2.7 25.56 1 23.84 1 21.76V21.76Z" stroke="#E2E2E2" stroke-width="1.5" stroke-miterlimit="10" stroke-linecap="round" stroke-linejoin="round"/>
</svg>
